<?xml version="1.0" encoding="UTF-8" standalone="no"?>
<!-- Generator: Adobe Illustrator 16.0.0, SVG Export Plug-In . SVG Version: 6.00 Build 0)  -->

<svg
   xmlns:dc="http://purl.org/dc/elements/1.1/"
   xmlns:cc="http://creativecommons.org/ns#"
   xmlns:rdf="http://www.w3.org/1999/02/22-rdf-syntax-ns#"
   xmlns:svg="http://www.w3.org/2000/svg"
   xmlns="http://www.w3.org/2000/svg"
   xmlns:sodipodi="http://sodipodi.sourceforge.net/DTD/sodipodi-0.dtd"
   xmlns:inkscape="http://www.inkscape.org/namespaces/inkscape"
   version="1.1"
   id="Ebene_1"
   x="0px"
   y="0px"
   width="689.46899"
   height="102.50298"
   viewBox="0 0 689.46901 102.50298"
   enable-background="new 0 0 891.381 302.875"
   xml:space="preserve"
   sodipodi:docname="HIFIS_Logo_short_RGB_cropped.svg"
   inkscape:version="0.92.3 (2405546, 2018-03-11)"><metadata
   id="metadata4157"><rdf:RDF><cc:Work
       rdf:about=""><dc:format>image/svg+xml</dc:format><dc:type
         rdf:resource="http://purl.org/dc/dcmitype/StillImage" /><dc:title></dc:title></cc:Work></rdf:RDF></metadata><defs
   id="defs4155" /><sodipodi:namedview
   pagecolor="#ffffff"
   bordercolor="#666666"
   borderopacity="1"
   objecttolerance="10"
   gridtolerance="10"
   guidetolerance="10"
   inkscape:pageopacity="0"
   inkscape:pageshadow="2"
   inkscape:window-width="1401"
   inkscape:window-height="855"
   id="namedview4153"
   showgrid="false"
   inkscape:zoom="0.43303594"
   inkscape:cx="344.70749"
   inkscape:cy="50.7385"
   inkscape:window-x="2030"
   inkscape:window-y="156"
   inkscape:window-maximized="0"
   inkscape:current-layer="Ebene_1" />
<line
   stroke-miterlimit="10"
   x1="35.043991"
   y1="61.58297"
   x2="67.449997"
   y2="76.597969"
   id="line4042"
   style="fill:none;stroke:#8cb423;stroke-width:2.40170002;stroke-miterlimit:10" />
<line
   stroke-miterlimit="10"
   x1="7.7839985"
   y1="71.882973"
   x2="67.449997"
   y2="76.597969"
   id="line4044"
   style="fill:none;stroke:#8cb423;stroke-width:2.40170002;stroke-miterlimit:10" />
<line
   stroke-miterlimit="10"
   x1="58.434006"
   y1="31.107979"
   x2="71.617004"
   y2="97.572975"
   id="line4046"
   style="fill:none;stroke:#8cb423;stroke-width:2.40170002;stroke-miterlimit:10" />
<line
   stroke-miterlimit="10"
   x1="58.434006"
   y1="31.107979"
   x2="28.283998"
   y2="94.029976"
   id="line4048"
   style="fill:none;stroke:#8cb423;stroke-width:2.40170002;stroke-miterlimit:10" />
<line
   stroke-miterlimit="10"
   x1="28.283998"
   y1="94.029976"
   x2="127.23799"
   y2="50.07798"
   id="line4050"
   style="fill:none;stroke:#8cb423;stroke-width:2.40170002;stroke-miterlimit:10" />
<line
   stroke-miterlimit="10"
   x1="58.434006"
   y1="31.107979"
   x2="127.23799"
   y2="50.07798"
   id="line4052"
   style="fill:none;stroke:#8cb423;stroke-width:2.40170002;stroke-miterlimit:10" />
<g
   id="g4056"
   transform="translate(-100.983,-99.673027)">
	<path
   d="m 214.644,201.706 h -88.769 c -13.725,0 -24.892,-11.166 -24.892,-24.891 0,-13.726 11.167,-24.892 24.892,-24.892 1.977,0 3.922,0.233 5.821,0.695 3.414,-17.172 18.611,-29.995 36.577,-29.995 3.412,0 6.772,0.461 10.03,1.372 6.854,-13.72 20.711,-22.652 36.236,-23.066 l 0.207,7.727 c -13.656,0.363 -25.726,8.815 -30.751,21.532 l -1.413,3.577 -3.584,-1.397 c -3.431,-1.337 -7.039,-2.015 -10.726,-2.015 -15.593,0 -28.555,12.182 -29.508,27.732 l -0.351,5.719 -5.171,-2.467 c -2.343,-1.117 -4.822,-1.685 -7.369,-1.685 -9.463,0 -17.161,7.698 -17.161,17.162 0,9.463 7.698,17.161 17.161,17.161 h 88.769 v 7.731 z"
   id="path4054"
   inkscape:connector-curvature="0"
   style="fill:#005aa0" />
</g>
<path
   stroke-miterlimit="10"
   d="m 31.824,94.136973 c -0.076,1.957 -1.722,3.494 -3.678,3.435 -1.954,-0.06 -3.479,-1.692 -3.403,-3.651 0.077,-1.956 1.723,-3.49 3.678,-3.432 1.956,0.06 3.479,1.692 3.403,3.648 z"
   id="path4058"
   inkscape:connector-curvature="0"
   style="fill:#ffffff;stroke:#005aa0;stroke-width:2.51480007;stroke-miterlimit:10" />
<line
   stroke-miterlimit="10"
   x1="113.765"
   y1="4.8009725"
   x2="127.23799"
   y2="50.07798"
   id="line4060"
   style="fill:none;stroke:#8cb423;stroke-width:2.40170002;stroke-miterlimit:10" />
<line
   stroke-miterlimit="10"
   x1="113.765"
   y1="4.8009725"
   x2="67.449997"
   y2="76.597969"
   id="line4062"
   style="fill:none;stroke:#8cb423;stroke-width:2.40170002;stroke-miterlimit:10" />
<path
   stroke-miterlimit="10"
   d="m 117.305,4.9069734 c -0.076,1.957 -1.722,3.494 -3.678,3.435 -1.954,-0.06 -3.479,-1.692 -3.403,-3.651 0.077,-1.956 1.723,-3.49 3.678,-3.432 1.956,0.06 3.479,1.693 3.403,3.648 z"
   id="path4064"
   inkscape:connector-curvature="0"
   style="fill:#ffffff;stroke:#005aa0;stroke-width:2.51480007;stroke-miterlimit:10" />
<line
   stroke-miterlimit="10"
   x1="58.434006"
   y1="31.107979"
   x2="112.616"
   y2="97.572975"
   id="line4066"
   style="fill:none;stroke:#8cb423;stroke-width:2.40170002;stroke-miterlimit:10" />
<line
   stroke-miterlimit="10"
   x1="127.23799"
   y1="50.07798"
   x2="112.616"
   y2="97.572975"
   id="line4068"
   style="fill:none;stroke:#8cb423;stroke-width:2.40170002;stroke-miterlimit:10" />
<path
   stroke-miterlimit="10"
   d="m 61.975,31.214973 c -0.076,1.957 -1.722,3.494 -3.678,3.435 -1.954,-0.06 -3.479,-1.692 -3.403,-3.651 0.077,-1.956 1.723,-3.49 3.678,-3.432 1.955,0.06 3.478,1.693 3.403,3.648 z"
   id="path4070"
   inkscape:connector-curvature="0"
   style="fill:#ffffff;stroke:#005aa0;stroke-width:2.51480007;stroke-miterlimit:10" />
<path
   stroke-miterlimit="10"
   d="m 130.779,50.183973 c -0.076,1.957 -1.722,3.494 -3.678,3.435 -1.954,-0.06 -3.479,-1.692 -3.403,-3.651 0.077,-1.956 1.723,-3.49 3.678,-3.432 1.955,0.061 3.478,1.693 3.403,3.648 z"
   id="path4072"
   inkscape:connector-curvature="0"
   style="fill:#ffffff;stroke:#005aa0;stroke-width:2.51480007;stroke-miterlimit:10" />
<line
   stroke-miterlimit="10"
   x1="67.449997"
   y1="76.597969"
   x2="112.616"
   y2="97.572975"
   id="line4074"
   style="fill:none;stroke:#8cb423;stroke-width:2.40170002;stroke-miterlimit:10" />
<path
   stroke-miterlimit="10"
   d="m 70.991,76.704973 c -0.076,1.957 -1.722,3.494 -3.678,3.435 -1.954,-0.06 -3.479,-1.692 -3.403,-3.651 0.077,-1.956 1.723,-3.49 3.678,-3.432 1.955,0.06 3.478,1.693 3.403,3.648 z"
   id="path4076"
   inkscape:connector-curvature="0"
   style="fill:#ffffff;stroke:#005aa0;stroke-width:2.51480007;stroke-miterlimit:10" />
<path
   stroke-miterlimit="10"
   d="m 116.157,97.679973 c -0.076,1.957 -1.722,3.493997 -3.678,3.434997 -1.954,-0.06 -3.479,-1.691997 -3.403,-3.650997 0.077,-1.956 1.723,-3.49 3.678,-3.432 1.955,0.06 3.478,1.692 3.403,3.648 z"
   id="path4078"
   inkscape:connector-curvature="0"
   style="fill:#ffffff;stroke:#005aa0;stroke-width:2.51480007;stroke-miterlimit:10" />
<g
   id="g4138"
   transform="translate(-100.983,-99.673027)">
	<g
   id="g4136">
		<path
   d="m 633.79,110.166 v -9.316 h 4.415 v 23.015 h -4.415 v -9.284 h -7.888 v 9.284 h -4.415 V 100.85 h 4.415 v 9.316 z"
   id="path4080"
   inkscape:connector-curvature="0"
   style="fill:#005aa0" />
		<path
   d="m 646.617,105.277 v 4.877 h 8.43 v 4.416 h -8.43 v 4.878 h 10.085 v 4.416 h -12.338 c -0.195,0 -0.382,-0.077 -0.521,-0.216 l -1.428,-1.427 c -0.138,-0.139 -0.215,-0.325 -0.215,-0.521 v -18.678 c 0,-0.194 0.078,-0.382 0.215,-0.52 l 1.428,-1.428 c 0.138,-0.138 0.325,-0.216 0.521,-0.216 h 12.338 v 4.417 h -10.085 z"
   id="path4082"
   inkscape:connector-curvature="0"
   style="fill:#005aa0" />
		<path
   d="m 673.911,119.448 v 4.416 h -11.139 c -0.196,0 -0.382,-0.077 -0.521,-0.216 l -1.428,-1.427 c -0.138,-0.139 -0.216,-0.325 -0.216,-0.521 v -20.84 h 4.417 v 18.588 z"
   id="path4084"
   inkscape:connector-curvature="0"
   style="fill:#005aa0" />
		<path
   d="m 696.549,100.86 v 23.004 h -4.417 v -12.733 l -3.104,6.516 c -0.094,0.197 -0.292,0.323 -0.51,0.323 h -3.482 c -0.218,0 -0.417,-0.126 -0.51,-0.323 l -3.104,-6.516 v 12.733 h -4.417 V 100.86 h 4.417 l 5.355,11.243 5.355,-11.243 z"
   id="path4086"
   inkscape:connector-curvature="0"
   style="fill:#005aa0" />
		<path
   d="m 713.56,110.166 v -9.316 h 4.415 v 23.015 h -4.415 v -9.284 h -7.888 v 9.284 h -4.415 V 100.85 h 4.415 v 9.316 z"
   id="path4088"
   inkscape:connector-curvature="0"
   style="fill:#005aa0" />
		<path
   d="m 736.026,101.921 2.305,2.271 c 0.686,0.678 1.071,1.623 1.071,2.598 v 11.102 c 0,0.974 -0.39,1.916 -1.071,2.597 l -2.305,2.306 c -0.681,0.681 -1.623,1.07 -2.597,1.07 h -5.162 c -0.973,0 -1.936,-0.368 -2.629,-1.07 l -2.272,-2.306 c -0.677,-0.686 -1.071,-1.623 -1.071,-2.597 V 106.79 c 0,-0.975 0.39,-1.915 1.071,-2.598 l 2.272,-2.271 c 0.714,-0.715 1.656,-1.104 2.629,-1.104 h 5.162 c 0.974,0 1.894,0.411 2.597,1.104 z m -1.039,15.387 v -9.901 c 0,-0.194 -0.099,-0.388 -0.227,-0.519 l -1.396,-1.429 c -0.162,-0.13 -0.356,-0.228 -0.551,-0.228 h -3.96 c -0.194,0 -0.356,0.098 -0.52,0.228 l -1.395,1.429 c -0.163,0.129 -0.227,0.324 -0.227,0.519 v 9.901 c 0,0.194 0.064,0.356 0.227,0.519 l 1.395,1.396 c 0.164,0.162 0.326,0.228 0.52,0.228 h 3.96 c 0.195,0 0.389,-0.065 0.551,-0.228 l 1.396,-1.396 c 0.13,-0.163 0.227,-0.325 0.227,-0.519 z"
   id="path4090"
   inkscape:connector-curvature="0"
   style="fill:#005aa0" />
		<path
   d="m 756.929,119.448 v 4.416 h -11.14 c -0.196,0 -0.382,-0.077 -0.521,-0.216 l -1.427,-1.427 c -0.138,-0.139 -0.216,-0.325 -0.216,-0.521 v -20.84 h 4.417 v 18.588 z"
   id="path4092"
   inkscape:connector-curvature="0"
   style="fill:#005aa0" />
		<path
   d="m 755.801,105.265 v -4.415 h 15.971 v 4.415 h -5.778 v 18.6 h -4.414 v -18.6 z"
   id="path4094"
   inkscape:connector-curvature="0"
   style="fill:#005aa0" />
		<path
   d="m 788.288,100.86 c 0.194,0 0.382,0.078 0.52,0.216 l 1.428,1.428 c 0.138,0.138 0.216,0.325 0.216,0.52 v 1.127 l -9.678,15.298 h 9.678 v 4.416 h -13.309 c -0.195,0 -0.382,-0.077 -0.52,-0.216 l -1.428,-1.427 c -0.138,-0.139 -0.216,-0.325 -0.216,-0.521 v -1.358 l 9.533,-15.065 h -9.437 v -4.417 h 13.213 z"
   id="path4096"
   inkscape:connector-curvature="0"
   style="fill:#005aa0" />
		<path
   d="m 634.277,150.165 v 2.889 h -8.7 v 9.771 h -3.343 v -21.652 h 12.822 v 2.89 h -9.479 v 6.103 h 8.7 z"
   id="path4098"
   inkscape:connector-curvature="0"
   style="fill:#005aa0" />
		<path
   d="m 650.64,150.165 v 2.889 h -8.7 v 6.883 h 9.739 v 2.889 h -13.083 v -21.652 h 12.822 v 2.89 h -9.479 v 6.103 h 8.701 z"
   id="path4100"
   inkscape:connector-curvature="0"
   style="fill:#005aa0" />
		<path
   d="m 659.861,141.173 c 3.669,0 5.519,0.292 7.174,1.169 3.084,1.655 5.032,5.355 5.032,9.641 0,4.286 -1.818,7.921 -4.837,9.576 -1.818,1.038 -3.311,1.267 -7.823,1.267 h -3.928 v -21.652 h 4.382 z m 0.715,18.764 c 2.824,0 3.928,-0.229 5.161,-1.039 1.818,-1.202 2.856,-3.734 2.856,-6.915 0,-3.246 -1.104,-5.746 -3.083,-6.946 -1.299,-0.812 -2.208,-0.974 -5.746,-0.974 h -0.941 v 15.874 z"
   id="path4102"
   inkscape:connector-curvature="0"
   style="fill:#005aa0" />
		<path
   d="m 688.204,150.165 v 2.889 h -8.7 v 6.883 h 9.739 v 2.889 H 676.16 v -21.652 h 12.822 v 2.89 h -9.479 v 6.103 h 8.701 z"
   id="path4104"
   inkscape:connector-curvature="0"
   style="fill:#005aa0" />
		<path
   d="m 697.684,141.173 c 3.603,0 4.967,0.194 6.427,0.877 2.045,0.974 3.279,3.052 3.279,5.55 0,2.824 -1.396,4.87 -4.123,5.974 l 5.324,9.252 h -3.96 l -4.902,-8.7 h -3.344 v 8.7 h -3.343 v -21.652 h 4.642 z m 0.194,10.063 c 2.338,0 3.052,-0.065 3.928,-0.39 1.331,-0.487 2.11,-1.688 2.11,-3.279 0,-1.363 -0.616,-2.434 -1.688,-2.954 -0.909,-0.454 -1.623,-0.551 -4.512,-0.551 h -1.331 v 7.174 z"
   id="path4106"
   inkscape:connector-curvature="0"
   style="fill:#005aa0" />
		<path
   d="m 720.183,141.108 7.401,21.717 h -3.473 l -1.591,-5.064 h -7.888 l -1.623,5.064 h -3.441 l 7.369,-21.717 z m -1.623,4.026 -3.051,9.737 h 6.135 z"
   id="path4108"
   inkscape:connector-curvature="0"
   style="fill:#005aa0" />
		<path
   d="m 741.352,141.173 v 2.89 h -5.714 v 18.763 h -3.343 v -18.763 h -5.649 v -2.89 z"
   id="path4110"
   inkscape:connector-curvature="0"
   style="fill:#005aa0" />
		<path
   d="m 756.577,150.165 v 2.889 h -8.699 v 6.883 h 9.738 v 2.889 h -13.082 v -21.652 h 12.823 v 2.89 h -9.479 v 6.103 h 8.699 z"
   id="path4112"
   inkscape:connector-curvature="0"
   style="fill:#005aa0" />
		<path
   d="m 765.799,141.173 c 3.667,0 5.518,0.292 7.173,1.169 3.084,1.655 5.032,5.355 5.032,9.641 0,4.286 -1.817,7.921 -4.837,9.576 -1.818,1.038 -3.311,1.267 -7.823,1.267 h -3.928 v -21.652 h 4.383 z m 0.714,18.764 c 2.824,0 3.928,-0.229 5.161,-1.039 1.818,-1.202 2.857,-3.734 2.857,-6.915 0,-3.246 -1.104,-5.746 -3.084,-6.946 -1.298,-0.812 -2.208,-0.974 -5.746,-0.974 h -0.941 v 15.874 z"
   id="path4114"
   inkscape:connector-curvature="0"
   style="fill:#005aa0" />
		<path
   d="m 622.201,201.785 v -21.652 h 3.375 v 21.652 z"
   id="path4116"
   inkscape:connector-curvature="0"
   style="fill:#005aa0" />
		<path
   d="m 643.497,180.133 v 2.89 h -5.713 v 18.763 h -3.344 v -18.763 h -5.648 v -2.89 z"
   id="path4118"
   inkscape:connector-curvature="0"
   style="fill:#005aa0" />
		<path
   d="m 664.893,186.139 c -0.194,-2.207 -1.623,-3.474 -3.863,-3.474 -2.013,0 -3.538,1.201 -3.538,2.792 0,0.778 0.422,1.461 1.201,1.915 0.649,0.422 1.039,0.584 3.701,1.72 3.116,1.299 4.123,1.851 4.934,2.76 0.909,1.007 1.396,2.338 1.396,3.896 0,3.896 -2.921,6.428 -7.434,6.428 -4.901,0 -7.628,-2.565 -7.855,-7.401 h 3.246 c 0.26,2.954 1.851,4.479 4.675,4.479 2.305,0 3.928,-1.233 3.928,-2.954 0,-0.975 -0.455,-1.721 -1.396,-2.37 -0.682,-0.454 -1.072,-0.648 -3.571,-1.721 -2.272,-0.973 -3.636,-1.72 -4.447,-2.466 -1.137,-1.039 -1.72,-2.402 -1.72,-3.993 0,-3.506 2.889,-6.006 6.979,-6.006 2.499,0 4.642,0.975 5.843,2.662 0.747,1.038 1.039,2.045 1.137,3.733 z"
   id="path4120"
   inkscape:connector-curvature="0"
   style="fill:#005aa0" />
		<path
   d="m 684.924,189.125 v 2.889 h -8.7 v 6.883 h 9.739 v 2.889 H 672.88 v -21.652 h 12.822 v 2.89 h -9.479 v 6.103 h 8.701 z"
   id="path4122"
   inkscape:connector-curvature="0"
   style="fill:#005aa0" />
		<path
   d="m 694.405,180.133 c 3.603,0 4.966,0.194 6.427,0.877 2.045,0.974 3.279,3.052 3.279,5.55 0,2.824 -1.396,4.87 -4.123,5.975 l 5.324,9.251 h -3.96 l -4.902,-8.7 h -3.343 v 8.7 h -3.343 v -21.652 h 4.641 z m 0.195,10.063 c 2.337,0 3.051,-0.065 3.927,-0.39 1.331,-0.487 2.11,-1.688 2.11,-3.278 0,-1.363 -0.617,-2.435 -1.688,-2.955 -0.909,-0.454 -1.623,-0.551 -4.512,-0.551 h -1.331 v 7.174 z"
   id="path4124"
   inkscape:connector-curvature="0"
   style="fill:#005aa0" />
		<path
   d="m 709.243,180.133 5.648,17.821 5.616,-17.821 h 3.506 l -7.467,21.717 h -3.473 l -7.401,-21.717 z"
   id="path4126"
   inkscape:connector-curvature="0"
   style="fill:#005aa0" />
		<path
   d="m 727.067,201.785 v -21.652 h 3.376 v 21.652 z"
   id="path4128"
   inkscape:connector-curvature="0"
   style="fill:#005aa0" />
		<path
   d="m 748.233,186.69 c -0.52,-2.662 -2.045,-4.025 -4.479,-4.025 -3.506,0 -5.714,3.214 -5.714,8.311 0,5.096 2.208,8.277 5.778,8.277 2.727,0 4.317,-1.753 4.642,-5.193 h 3.052 c -0.324,5.258 -2.986,8.115 -7.596,8.115 -5.714,0 -9.382,-4.383 -9.382,-11.168 0,-3.895 1.136,-7.011 3.312,-9.023 1.59,-1.428 3.701,-2.24 5.94,-2.24 4.317,0 7.012,2.5 7.401,6.947 h -2.954 z"
   id="path4130"
   inkscape:connector-curvature="0"
   style="fill:#005aa0" />
		<path
   d="m 767.355,189.125 v 2.889 h -8.699 v 6.883 h 9.738 v 2.889 h -13.082 v -21.652 h 12.823 v 2.89 h -9.479 v 6.103 h 8.699 z"
   id="path4132"
   inkscape:connector-curvature="0"
   style="fill:#005aa0" />
		<path
   d="m 782.29,186.139 c -0.194,-2.207 -1.623,-3.474 -3.863,-3.474 -2.012,0 -3.538,1.201 -3.538,2.792 0,0.778 0.422,1.461 1.201,1.915 0.649,0.422 1.039,0.584 3.7,1.72 3.116,1.299 4.123,1.851 4.935,2.76 0.909,1.007 1.396,2.338 1.396,3.896 0,3.896 -2.922,6.428 -7.434,6.428 -4.902,0 -7.629,-2.565 -7.856,-7.401 h 3.247 c 0.26,2.954 1.85,4.479 4.674,4.479 2.305,0 3.928,-1.233 3.928,-2.954 0,-0.975 -0.454,-1.721 -1.396,-2.37 -0.681,-0.454 -1.071,-0.648 -3.57,-1.721 -2.272,-0.973 -3.635,-1.72 -4.447,-2.466 -1.136,-1.039 -1.72,-2.402 -1.72,-3.993 0,-3.506 2.889,-6.006 6.979,-6.006 2.5,0 4.642,0.975 5.842,2.662 0.747,1.038 1.039,2.045 1.137,3.733 z"
   id="path4134"
   inkscape:connector-curvature="0"
   style="fill:#005aa0" />
	</g>
</g>
<path
   d="M 198.482,41.882973 V 1.0289734 h 19.359 V 101.95897 H 198.482 V 61.245973 H 163.888 V 101.95897 H 144.529 V 1.0289734 h 19.359 V 41.882973 Z"
   id="path4140"
   inkscape:connector-curvature="0"
   style="fill:#005aa0" />
<path
   d="M 254.752,101.95797 H 235.391 V 1.0269734 h 19.361 z"
   id="path4142"
   inkscape:connector-curvature="0"
   style="fill:#005aa0" />
<path
   d="M 337.642,1.0279734 V 20.386973 h -45.979 v 21.495 h 40.144 v 19.362 H 291.663 V 101.95697 H 272.301 V 10.563973 c 0,-0.8539996 0.285,-1.7079996 0.998,-2.2769996 l 6.264,-6.263 c 0.569,-0.57 1.424,-0.997 2.277,-0.997 h 55.802 z"
   id="path4144"
   inkscape:connector-curvature="0"
   style="fill:#005aa0" />
<path
   d="M 374.553,101.95797 H 355.192 V 1.0269734 h 19.361 z"
   id="path4146"
   inkscape:connector-curvature="0"
   style="fill:#005aa0" />
<path
   d="m 446.111,101.96997 h -28.416 c -4.311,0 -8.363,-1.678 -11.412,-4.726997 l -11.346,-11.347 13.691,-13.689 9.457,9.456 c 0.604,0.604 1.426,0.945 2.283,0.945 h 23.07 c 0.855,0 1.676,-0.341 2.283,-0.945 l 6.227,-6.226 c 0.604,-0.607 0.945,-1.428 0.945,-2.285 v -3.351 c 0,-1.446 -0.974,-2.728 -2.366,-3.114 l -41.894,-11.666 c -4.725,-1.314 -8.963,-4.191 -11.93,-8.099 -2.969,-3.906 -4.604,-8.761 -4.604,-13.666 v -6.024 c 0,-4.279 1.701,-8.386 4.727,-11.412 L 406.833,5.8129734 c 3.048,-3.047 7.101,-4.725 11.411,-4.725 h 28.416 c 4.311,0 8.365,1.678 11.412,4.725 l 11.346,11.3489996 -13.689,13.689 -9.457,-9.456 c -0.606,-0.604 -1.428,-0.945 -2.284,-0.945 h -23.069 c -0.857,0 -1.68,0.341 -2.284,0.945 l -6.226,6.227 c -0.606,0.604 -0.945,1.427 -0.945,2.282 v 3.353 c 0,1.443 0.972,2.725 2.365,3.114 l 41.891,11.664 c 4.727,1.316 8.965,4.191 11.934,8.098 2.967,3.909 4.602,8.762 4.602,13.669 v 6.024 c 0,4.31 -1.678,8.362 -4.728,11.412 l -10.005,10.005 c -3.048,3.048997 -7.1,4.726997 -11.412,4.726997 z"
   id="path4148"
   inkscape:connector-curvature="0"
   style="fill:#005aa0" />
<rect
   x="494.73203"
   y="1.1809697"
   width="3.448"
   height="100.918"
   id="rect4150"
   style="fill:#005aa0" />
</svg>